
<svg width="93px" height="93px" viewBox="0 0 93 93" version="1.1" xmlns="http://www.w3.org/2000/svg" xmlns:xlink="http://www.w3.org/1999/xlink">
    <!-- Generator: Sketch 50.2 (55047) - http://www.bohemiancoding.com/sketch -->
    <desc>Created with Sketch.</desc>
    <defs>
        <linearGradient x1="50%" y1="0%" x2="50%" y2="100%" id="linearGradient-1">
            <stop stop-color="#3DA3D0" offset="0%"></stop>
            <stop stop-color="#8969FE" offset="100%"></stop>
        </linearGradient>
    </defs>
    <g id="Page-1" stroke="none" stroke-width="1" fill="none" fill-rule="evenodd">
        <g id="action-completed" fill-rule="nonzero">
            <path d="M27.5975,44.2203576 C26.3205,42.9433576 24.2385,42.9433576 22.9615,44.2203576 C21.6795,45.5013576 21.6795,47.5793576 22.9615,48.8613576 L38.0785,63.9823576 C38.7185,64.6223576 39.5195,64.9433576 40.3985,64.9433576 L40.5585,64.9433576 C41.4375,64.8613576 42.3205,64.4623576 42.9615,63.7393576 L80.8005,18.3803576 C81.9185,17.0213576 81.7575,14.9433576 80.3985,13.7393576 C79.0395,12.6223576 76.9615,12.7823576 75.7575,14.1423576 L40.1605,56.7823576 L27.5975,44.2203576 Z" id="Fill-1" fill="url(#linearGradient-1)"></path>
            <path d="M70.92225,7.09779254 C52.52025,-4.42120746 28.92225,-1.69920746 13.55925,13.6607925 C-4.51975,31.7387925 -4.51975,61.2577925 13.55925,79.3407925 C22.60225,88.3797925 34.52025,92.9377925 46.35925,92.9377925 C58.19925,92.9377925 70.12125,88.3797925 79.16025,79.3407925 C94.60225,63.8987925 97.23825,40.2187925 85.64125,21.8207925 C84.68025,20.3007925 82.68025,19.8207925 81.16025,20.7817925 C79.64125,21.7387925 79.16025,23.7387925 80.12125,25.2577925 C90.12125,41.0977925 87.80125,61.4187925 74.52025,74.6997925 C59.00025,90.2187925 33.64125,90.2187925 18.12125,74.6997925 C2.60225,59.1797925 2.60225,33.8207925 18.12125,18.3007925 C31.39825,5.09779254 51.64125,2.78179254 67.48025,12.6217925 C69.00025,13.5787925 71.00025,13.0977925 71.96125,11.5787925 C72.92225,10.0587925 72.44125,8.05879254 70.92225,7.09779254 Z" id="Fill-3" fill="#7ED321"></path>
        </g>
    </g>
</svg>